<svg id="Layer_2" data-name="Layer 2" xmlns="http://www.w3.org/2000/svg" viewBox="0 0 128 128"><title>WOOFERS</title><path d="M62.633,80.879h-.941A22.518,22.518,0,0,0,47.513,69.6V19.967a5.679,5.679,0,1,0-11.357,0V69.6A22.517,22.517,0,0,0,21.977,80.879h-.941a4.267,4.267,0,0,0-1.523,8.257h0c-.068.708-.105,1.425-.105,2.15v20.677a1.75,1.75,0,0,0,1.75,1.75H62.512a1.75,1.75,0,0,0,1.75-1.75V91.285c0-.725-.038-1.442-.105-2.15h0a4.267,4.267,0,0,0-1.523-8.257ZM39.655,68.969v-49a2.179,2.179,0,1,1,4.357,0v49c-.046,0-.091,0-.138-.007-.673-.061-1.352-.1-2.041-.1s-1.368.042-2.041.1C39.747,68.966,39.7,68.964,39.655,68.969Zm-1.491,3.749c.024,0,.048,0,.072-.007.574-.111,1.143-.191,1.709-.249l.2-.02a18.29,18.29,0,0,1,3.372,0l.21.02c.565.058,1.131.138,1.7.249.021,0,.042,0,.063,0a18.976,18.976,0,0,1,12.132,8.163H26.041A18.974,18.974,0,0,1,38.164,72.718ZM21.036,84.379h41.6a.775.775,0,0,1,0,1.55h-41.6a.775.775,0,0,1,0-1.55Zm39.726,25.833H55.073v-6.469a1.75,1.75,0,0,0-3.5,0v6.469H43.584v-6.469a1.75,1.75,0,0,0-3.5,0v6.469H32.095v-6.469a1.75,1.75,0,1,0-3.5,0v6.469H22.907V91.285c0-.627.034-1.245.094-1.856H60.668c.06.611.094,1.23.094,1.856Z"/><path d="M110.339,104.225,78.763,86.65V19.967a5.679,5.679,0,1,0-11.357,0v92a1.75,1.75,0,0,0,1.75,1.75h40.333a1.75,1.75,0,0,0,1.75-1.75v-6.208A1.749,1.749,0,0,0,110.339,104.225ZM70.905,19.967a2.179,2.179,0,1,1,4.357,0v90.245H70.905Zm36.833,90.245H85.905v-6.469a1.75,1.75,0,0,0-3.5,0v6.469H78.763V90.655l28.976,16.127Z"/><path d="M97.847,59.824a1.75,1.75,0,0,0,1.75-1.75V55.4a1.75,1.75,0,0,0-3.5,0v2.675A1.75,1.75,0,0,0,97.847,59.824Z"/><path d="M91.913,63.278h2.675a1.75,1.75,0,0,0,0-3.5H91.913a1.75,1.75,0,0,0,0,3.5Z"/><path d="M98.042,63.037a1.75,1.75,0,0,0-1.75,1.75v2.675a1.75,1.75,0,0,0,3.5,0V64.787A1.75,1.75,0,0,0,98.042,63.037Z"/><path d="M101.3,63.083h2.675a1.75,1.75,0,0,0,0-3.5H101.3a1.75,1.75,0,1,0,0,3.5Z"/><path d="M21.06,35.877a1.75,1.75,0,0,0,1.75-1.75V31.452a1.75,1.75,0,0,0-3.5,0v2.675A1.75,1.75,0,0,0,21.06,35.877Z"/><path d="M19.551,37.581a1.75,1.75,0,0,0-1.75-1.75H15.126a1.75,1.75,0,1,0,0,3.5H17.8A1.75,1.75,0,0,0,19.551,37.581Z"/><path d="M23,40.84a1.75,1.75,0,0,0-3.5,0v2.675a1.75,1.75,0,0,0,3.5,0Z"/><path d="M24.514,39.136h2.675a1.75,1.75,0,0,0,0-3.5H24.514a1.75,1.75,0,0,0,0,3.5Z"/></svg>