<?xml version="1.0" encoding="UTF-8"?>
<!DOCTYPE svg PUBLIC "-//W3C//DTD SVG 1.1//EN" "http://www.w3.org/Graphics/SVG/1.1/DTD/svg11.dtd">
<!-- Creator: CorelDRAW -->
<svg xmlns="http://www.w3.org/2000/svg" xml:space="preserve" width="2048px" height="2048px" style="shape-rendering:geometricPrecision; text-rendering:geometricPrecision; image-rendering:optimizeQuality; fill-rule:evenodd; clip-rule:evenodd"
viewBox="0 0 2048 2048"
 xmlns:xlink="http://www.w3.org/1999/xlink">
 <defs>
  <style type="text/css">
   <![CDATA[
    .fil2 {fill:none}
    .fil0 {fill:#6A6A6A}
    .fil1 {fill:#838383;fill-rule:nonzero}
    .fil4 {fill:#ACADAD;fill-rule:nonzero}
    .fil3 {fill:#D9D9DA;fill-rule:nonzero}
   ]]>
  </style>
 </defs>
 <g id="Layer_x0020_1">
  <metadata id="CorelCorpID_0Corel-Layer"/>
  <polygon class="fil0" points="384,1440 411.141,607.336 1014.64,769.044 1679.04,594.73 1635.61,1440 1023.99,1565.78 "/>
  <path class="fil1" d="M1760 570.526l-123.136 36.815 0 790.939 -0.103937 0c0.0330709,6.67323 -1.64882,44.68 -44.5465,44.68 -99.8658,0 -195.175,3.61063 -287.014,19.7988 -90.7335,15.9945 -178.68,44.3658 -265.331,93.9379l-15.8788 9.08387 -15.8717 -9.08387c-88.0253,-50.38 -176.986,-78.7583 -268.702,-94.5497 -92.7922,-15.9768 -189.251,-19.187 -290.609,-19.187 -34.7492,0 -37.4244,-31.4114 -37.552,-39.2351l-0.111024 0 0 -796.388 -123.143 -36.8138 0 931.616c103.943,-9.31536 231.76,-13.3099 352.581,-0.412205 98.8383,10.5508 193.389,32.4083 267.624,71.8052l-0.0271654 0.0519685 2.15079 1.13268c17.2181,9.0815 86.0717,45.4004 113.679,45.4004 27.6071,0 96.5174,-36.3449 113.707,-45.4111l2.13071 -1.12205 -0.0271654 -0.0519685c74.2134,-39.3957 168.76,-61.2532 267.594,-71.8028 120.823,-12.8988 248.652,-8.90316 352.588,0.409843l0 -931.613z"/>
  <rect class="fil2" x="256" y="255.999" width="1536" height="1536"/>
  <rect class="fil2" x="255.999" y="255.999" width="1536" height="1536"/>
  <rect class="fil0" x="1005.44" y="581.456" width="27.3886" height="910.65"/>
  <path class="fil3" d="M1296.46 1427.73c-73.5792,10.7221 -145.583,25.9583 -211.995,47.1319l-54.0815 17.2406 -0.00472441 -49.2331 -0.0814961 -838.589 -0.00354331 -22.8886 24.8457 -8.70119 483.292 -169.257 55.3465 -19.3819 0 50.9717 -0.00944883 937.425 -0.0011811 33.0922 -38.8347 1.04173c-83.4272,2.23583 -171.601,8.48741 -258.473,21.1477z"/>
  <path class="fil3" d="M751.693 1427.73c-86.8737,-12.6614 -175.051,-18.913 -258.487,-21.1488l-38.9929 -1.04528 0 -33.0886 0 -937.425 0 -51.0272 55.5036 19.4374 483.296 169.257 24.8445 8.70119 -0.00236221 22.8886 -0.0732284 838.597 -0.00236221 49.2355 -54.0839 -17.2429c-66.4182,-21.1772 -138.424,-36.4158 -212.002,-47.139z"/>
  <g id="_493157944">
   <polygon id="_493180552" class="fil4" points="914.576,717.188 927.19,721.966 927.253,752.95 905.923,745.605 540.898,607.551 541.908,575.999 554.521,580.777 "/>
   <polygon id="_493160704" class="fil4" points="914.576,896.231 927.19,901.008 927.253,931.992 905.923,924.647 540.898,786.594 541.908,755.042 554.521,759.819 "/>
  </g>
  <g id="_493173280">
   <polygon id="_493170472" class="fil4" points="1130.32,717.188 1117.71,721.966 1117.65,752.95 1138.98,745.605 1504,607.551 1502.99,575.999 1490.38,580.777 "/>
   <polygon id="_493175752" class="fil4" points="1130.32,896.231 1117.71,901.008 1117.65,931.992 1138.98,924.647 1504,786.594 1502.99,755.042 1490.38,759.819 "/>
  </g>
  <rect class="fil2" width="2048" height="2048"/>
 </g>
</svg>
